# AST/ASF file generated using VICON BodyLanguage
# -----------------------------------------------
:version 1.10
:name VICON
:units
  mass 1.0
  length 0.45
  angle deg
:documentation
   .ast/.asf automatically generated from VICON data using
   VICON BodyBuilder and BodyLanguage model FoxedUp or BRILLIANT.MOD
:root
   order TX TY TZ RX RY RZ
   axis XYZ
   position 0 0 0  
   orientation 0 0 0 
:bonedata
  begin
     id 1 
     name lhipjoint
     direction 0.521689 -0.742065 0.420928 
     length 2.47002 
     axis 0 0 0  XYZ
  end
  begin
     id 2 
     name lfemur
     direction 0.34202 -0.939693 0  
     length 7.24654  
     axis 0 0 20  XYZ
    dof rx ry rz
    limits (-160.0 20.0)
           (-70.0 70.0)
           (-60.0 70.0)
  end
  begin
     id 3 
     name ltibia
     direction 0.34202 -0.939693 0   
     length 8.04849   
     axis 0 0 20   XYZ
    dof rx
    limits (-10.0 170.0)
  end
  begin
     id 4 
     name lfoot
     direction 0.0745411 -0.2048 0.975961   
     length 1.72367   
     axis -90 7.62852e-016 20   XYZ
    dof rx rz
    limits (-45.0 90.0)
           (-70.0 20.0)
  end
  begin
     id 5 
     name ltoes
     direction 1.53556e-011 -4.21901e-011 1   
     length 0.87311   
     axis -90 7.62852e-016 20   XYZ
    dof rx
    limits (-90.0 20.0)
  end
  begin
     id 6 
     name rhipjoint
     direction -0.52849 -0.738415 0.418857   
     length 2.48223  
     axis 0 0 0  XYZ 
  end
  begin
     id 7 
     name rfemur
     direction -0.34202 -0.939693 0   
     length 7.15571   
     axis 0 0 -20   XYZ
    dof rx ry rz
    limits (-160.0 20.0)
           (-70.0 70.0)
           (-70.0 60.0)
  end
  begin
     id 8 
     name rtibia
     direction -0.34202 -0.939693 0   
     length 7.81659   
     axis 0 0 -20   XYZ
    dof rx
    limits (-10.0 170.0)
 end
 begin
     id 9 
     name rfoot
     direction -0.0917348 -0.252039 0.963359   
     length 1.84382  
     axis -90 -7.62852e-016 -20   XYZ
    dof rx rz
    limits (-45.0 90.0)
           (-20.0 70.0)
  end
  begin
     id 10 
     name rtoes
     direction -1.53551e-011 -4.21879e-011 1   
     length 0.927771   
     axis -90 -7.62852e-016 -20   XYZ
    dof rx
    limits (-90.0 20.0)
  end
  begin
     id 11 
     name lowerback
     direction 0.00583058 0.999822 0.0179296   
     length 2.1429   
     axis 0 0 0   XYZ
    dof rx ry rz
    limits (-20.0 45.0)
           (-30.0 30.0)
           (-30.0 30.0)
  end
  begin
     id 12 
     name upperback
     direction -0.0137999 0.999752 -0.0175071   
     length 2.14252   
     axis 0 0 0   XYZ
    dof rx ry rz
    limits (-20.0 45.0)
           (-30.0 30.0)
           (-30.0 30.0)
  end
  begin
     id 13 
     name thorax
     direction -0.0158036 0.99955 -0.0254909   
     length 2.1383   
     axis 0 0 0   XYZ
    dof rx ry rz
    limits (-20.0 45.0)
           (-30.0 30.0)
           (-30.0 30.0)
  end
  begin
     id 14 
     name lowerneck
     direction -0.0101179 0.999403 -0.0330262   
     length 1.65808   
     axis 0 0 0   XYZ
    dof rx ry rz
    limits (-20.0 45.0)
           (-30.0 30.0)
           (-30.0 30.0)
  end
  begin
     id 15 
     name upperneck
     direction 0.0497734 0.995978 -0.074501   
     length 1.5897   
     axis 0 0 0   XYZ
    dof rx ry rz
    limits (-20.0 45.0)
           (-30.0 30.0)
           (-30.0 30.0)
  end
  begin
     id 16
     name head
     direction 0.0189524 0.999519 -0.0245438  
     length 1.74024  
     axis 0 0 0   XYZ
    dof rx ry rz
    limits (-20.0 45.0)
           (-30.0 30.0)
           (-30.0 30.0)
  end
  begin
     id 17 
     name lclavicle
     direction 0.945604 0.324422 0.0241537  
     length 3.59089  
     axis 0 0 0   XYZ
    dof ry rz
    limits (-20.0 10.0)
           (0.0 20.0)
  end
  begin
     id 18 
     name lhumerus
     direction 1 -4.48964e-011 -2.63524e-027   
     length 5.2391   
     axis 180 -30 -90   XYZ
    dof rx ry rz
    limits (-60.0 90.0)
           (-90.0 90.0)
           (-90.0 90.0)
  end
  begin
     id 19
     name lradius
     direction 1 -4.48969e-011 3.86978e-028   
     length 3.31467   
     axis 180 -30 -90   XYZ
    dof rx
    limits (-10.0 170.0)
  end
  begin
     id 20
     name lwrist
     direction 1 -4.48963e-011 7.20928e-028   
     length 1.65734   
     axis -5.52449e-016 90 90   XYZ
    dof ry
    limits (-180.0 0.0)
 end
  begin
     id 21 
     name lhand
     direction 1 -4.48964e-011 1.44186e-027   
     length 0.9659   
     axis -9.20027e-016 90 90   XYZ
    dof rx rz
    limits (-90.0 90.0)
           (-45.0 45.0)
  end
  begin
     id 22 
     name lfingers
     direction 1 -4.48965e-011 2.88371e-027   
     length 0.778733   
     axis -1.84005e-015 90 90   XYZ
    dof rx
    limits (0.0 90.0)
  end
  begin
     id 23
     name lthumb
     direction 0.707107 -6.34931e-011 0.707107   
     length 1.11811   
     axis -90 45 2.85299e-015   XYZ
    dof rx rz
    limits (-45.0 45.0)
           (-45.0 45.0)
  end
  begin
     id 24 
     name rclavicle
     direction -0.923762 0.370785 0.0958234   
     length 3.54196  
     axis 0 0 0   XYZ 
    dof ry rz
    limits (-10.0 20.0)
           (-20.0 0.0)
  end
  begin
     id 25 
     name rhumerus
     direction -1 -4.48966e-011 1.18702e-017  
     length 5.30252   
     axis 180 30 90   XYZ
    dof rx ry rz
    limits (-90.0 60.0)
           (-90.0 90.0)
           (-90.0 90.0)
  end
  begin
     id 26 
     name rradius
     direction -1 -4.48966e-011 4.46736e-027   
     length 3.67875   
     axis 180 30 90   XYZ
    dof rx
    limits (-10.0 170.0)
  end
  begin
     id 27 
     name rwrist
     direction -1 -4.48966e-011 7.20928e-028   
     length 1.83937   
     axis -5.52449e-016 -90 -90   XYZ
    dof ry
    limits (-180.0 0.0)
  end
  begin
     id 28
     name rhand
     direction -1 -4.48973e-011 1.44186e-027   
     length 0.594811   
     axis -9.20027e-016 -90 -90   XYZ
    dof rx rz
    limits (-90.0 90.0)
           (-45.0 45.0)
  end
  begin
     id 29
     name rfingers
     direction -1 -4.48963e-011 2.88371e-027   
     length 0.479552   
     axis -1.84005e-015 -90 -90   XYZ
    dof rx
    limits (0.0 90.0)
  end
  begin
     id 30
     name rthumb
     direction -0.707107 -6.34932e-011 0.707107   
     length 0.688544   
     axis -90 -45 -2.85299e-015   XYZ
    dof rx rz
    limits (-45.0 45.0)
           (-45.0 45.0)
  end
:hierarchy
  begin
    root lhipjoint rhipjoint lowerback
    lhipjoint lfemur
    lfemur ltibia
    ltibia lfoot
    lfoot ltoes
    rhipjoint rfemur
    rfemur rtibia
    rtibia rfoot
    rfoot rtoes
    lowerback upperback
    upperback thorax
    thorax lowerneck lclavicle rclavicle
    lowerneck upperneck
    upperneck head
    lclavicle lhumerus
    lhumerus lradius
    lradius lwrist
    lwrist lhand lthumb
    lhand lfingers
    rclavicle rhumerus
    rhumerus rradius
    rradius rwrist
    rwrist rhand rthumb
    rhand rfingers
  end

#!OML:ASF E:\acrobat2\Project_11_07_03\Capture day 1\Session 1\Acrobat.ASF
:FULLY-SPECIFIED
:DEGREES
174
root 9.628 17.244 29.6149 -177.906 -0.687306 -177.888
lowerback -9.97113 0.856319 1.60733
upperback -1.9113 0.83287 -0.562641
thorax 3.63391 0.364136 -1.38556
lowerneck 2.66401 -2.37247 -1.87118
upperneck -2.78057 -3.1549 4.08529
head -1.21768 -1.64149 1.65142
rclavicle -2.78299e-015 -4.77083e-015
rhumerus -43.2085 17.9556 -97.4753
rradius 27.4499
rwrist 5.36981
rhand 4.33143 -37.7066
rfingers 7.12502
rthumb 29.7321 -65.342
lclavicle -2.78299e-015 -4.77083e-015
lhumerus -37.6861 -27.4289 99.1475
lradius 21.802
lwrist 8.36475
lhand 6.61505 -16.5907
lfingers 7.12502
lthumb 31.9092 10.6334
rfemur 15.6922 27.0062 8.88012
rtibia -5.89504
rfoot -46.1554 -34.5777
rtoes 17.7203
lfemur 12.8786 -16.0329 1.53585
ltibia -6.67335
lfoot -41.4331 -1.60471
ltoes 54.2368
175
root 9.62798 17.2413 29.6106 -177.857 -0.585539 -177.789
lowerback -10.0063 0.835381 1.6639
upperback -1.90223 0.795423 -0.487137
thorax 3.66118 0.346181 -1.34355
lowerneck 2.62995 -2.34884 -2.00513
upperneck -2.842 -3.12438 4.24526
head -1.22881 -1.62866 1.72614
rclavicle -9.39258e-015 0
rhumerus -43.2383 18.1257 -97.4841
rradius 27.5057
rwrist 5.33524
rhand 4.31627 -37.7488
rfingers 7.12502
rthumb 29.7176 -65.3868
lclavicle -9.39258e-015 0
lhumerus -37.6465 -27.2836 99.1319
lradius 21.8126
lwrist 8.42655
lhand 6.60765 -16.5376
lfingers 7.12502
lthumb 31.9022 10.6879
rfemur 15.5577 26.9922 8.90275
rtibia -5.81318
rfoot -45.8379 -34.7588
rtoes 16.4787
lfemur 12.8846 -16.0319 1.67135
ltibia -6.73242
lfoot -41.4501 -3.08558
ltoes 55.2873
176
root 9.62876 17.2405 29.6089 -177.773 -0.423245 -177.705
lowerback -10.0406 0.840491 1.7218
upperback -1.939 0.789143 -0.418874
thorax 3.64165 0.341368 -1.30604
lowerneck 2.52328 -2.28489 -2.05032
upperneck -2.68402 -3.04262 4.21725
head -1.16277 -1.5839 1.71908
rclavicle -5.91384e-015 1.59028e-015
rhumerus -43.3112 18.2846 -97.5085
rradius 27.5585
rwrist 5.27697
rhand 4.37382 -37.8163
rfingers 7.12502
rthumb 29.7725 -65.4446
lclavicle -5.91384e-015 1.59028e-015
lhumerus -37.5541 -26.9407 99.0307
lradius 21.741
lwrist 8.17878
lhand 6.74716 -16.4265
lfingers 7.12502
lthumb 32.035 10.7724
rfemur 15.2839 27.0883 8.87821
rtibia -5.67943
rfoot -45.5435 -34.8192
rtoes 15.8516
lfemur 12.8537 -16.0289 1.78832
ltibia -6.72819
lfoot -41.6424 -3.57162
ltoes 55.4028
177
root 9.62998 17.2417 29.6087 -177.693 -0.244544 -177.643
lowerback -9.99154 0.883712 1.77603
upperback -2.00937 0.836037 -0.390231
thorax 3.54339 0.361563 -1.30161
lowerneck 2.51801 -2.24848 -2.24368
upperneck -2.36716 -3.00477 4.33155
head -1.05955 -1.5618 1.78408
rclavicle 6.11263e-015 -2.38542e-015
rhumerus -43.3858 18.3072 -97.5357
rradius 27.5485
rwrist 5.34451
rhand 4.43288 -37.912
rfingers 7.12502
rthumb 29.8289 -65.5301
lclavicle 6.11263e-015 -2.38542e-015
lhumerus -37.4854 -26.7857 98.9688
lradius 21.6242
lwrist 8.00955
lhand 6.92492 -16.4788
lfingers 7.12502
lthumb 32.2042 10.686
rfemur 14.9803 27.2324 8.8338
rtibia -5.52636
rfoot -45.5126 -34.6306
rtoes 16.0571
lfemur 12.7929 -15.8894 1.91792
ltibia -6.64276
lfoot -41.7905 -3.03424
ltoes 54.7578
178
root 9.62891 17.2416 29.6051 -177.626 -0.139356 -177.682
lowerback -9.96024 0.902279 1.73512
upperback -2.07103 0.861383 -0.391264
thorax 3.46231 0.370634 -1.27708
lowerneck 2.31815 -2.22335 -2.21645
upperneck -1.82237 -2.98198 4.19764
head -0.856372 -1.54151 1.72379
rclavicle 1.83876e-015 -3.97569e-016
rhumerus -43.4123 18.3107 -97.5468
rradius 27.4225
rwrist 5.43282
rhand 4.40086 -37.8515
rfingers 7.12502
rthumb 29.7983 -65.4751
lclavicle 1.83876e-015 -3.97569e-016
lhumerus -37.5222 -26.8981 99.0786
lradius 21.5202
lwrist 8.06227
lhand 6.77742 -16.7207
lfingers 7.12502
lthumb 32.0638 10.4724
rfemur 14.7349 26.9901 8.57131
rtibia -5.41394
rfoot -45.4195 -34.0988
rtoes 16.6032
lfemur 12.6978 -15.6675 1.94382
ltibia -6.49859
lfoot -41.6552 -2.61381
ltoes 54.3266
179
root 9.62685 17.2411 29.5996 -177.542 -0.0711047 -177.715
lowerback -9.99114 0.911452 1.6957
upperback -2.13406 0.87079 -0.37135
thorax 3.41339 0.371486 -1.23316
lowerneck 2.54275 -2.16474 -2.3831
upperneck -1.7194 -2.91258 4.24836
head -0.86259 -1.50726 1.77127
rclavicle 5.76476e-015 -1.19271e-015
rhumerus -43.3931 18.3408 -97.5205
rradius 27.2217
rwrist 5.47714
rhand 4.32548 -37.7107
rfingers 7.12502
rthumb 29.7264 -65.3472
lclavicle 5.76476e-015 -1.19271e-015
lhumerus -37.5558 -26.8891 99.2066
lradius 21.4147
lwrist 8.06766
lhand 6.69621 -16.7203
lfingers 7.12502
lthumb 31.9865 10.4883
rfemur 14.4841 26.6293 8.2814
rtibia -5.3188
rfoot -45.2277 -33.4937
rtoes 17.5771
lfemur 12.586 -15.4248 1.98247
ltibia -6.38831
lfoot -41.3694 -2.87948
ltoes 54.5087
180
root 9.62586 17.2418 29.5953 -177.459 -0.0246491 -177.689
lowerback -10.0363 0.680511 1.75045
upperback -2.1768 0.919654 -0.325558
thorax 3.39125 0.551153 -1.20088
lowerneck 2.61142 -2.06422 -2.53923
upperneck -1.51558 -2.78874 4.34361
head -0.812216 -1.44511 1.82649
rclavicle -1.635e-014 1.98785e-015
rhumerus -43.3519 18.344 -97.4578
rradius 27.0477
rwrist 5.68457
rhand 4.14517 -37.585
rfingers 7.12502
rthumb 29.5543 -65.2521
lclavicle -1.635e-014 1.98785e-015
lhumerus -37.5623 -26.7442 99.2565
lradius 21.347
lwrist 7.917
lhand 6.72202 -16.5553
lfingers 7.12502
lthumb 32.0111 10.6484
rfemur 14.2649 26.3815 8.12652
rtibia -5.24297
rfoot -44.976 -33.1752
rtoes 17.8859
lfemur 12.4621 -15.0511 2.14467
ltibia -6.30811
lfoot -40.9952 -3.34222
ltoes 54.6616
181
root 9.62579 17.2431 29.5909 -177.372 0.00492616 -177.708
lowerback -10.0588 0.647109 1.7444
upperback -2.21332 0.879267 -0.326483
thorax 3.36421 0.532075 -1.20359
lowerneck 2.42438 -2.06299 -2.50654
upperneck -0.88641 -2.80255 4.21026
head -0.584816 -1.44511 1.76632
rclavicle -8.05078e-015 1.19271e-014
rhumerus -43.2921 18.257 -97.3801
rradius 26.897
rwrist 6.07616
rhand 4.12811 -37.3855
rfingers 7.12502
rthumb 29.538 -65.0554
lclavicle -8.05078e-015 1.19271e-014
lhumerus -37.6479 -26.6605 99.2572
lradius 21.3604
lwrist 7.82152
lhand 6.72596 -16.4181
lfingers 7.12502
lthumb 32.0148 10.7849
rfemur 14.094 26.1839 7.95208
rtibia -5.1841
rfoot -44.8022 -32.976
rtoes 17.516
lfemur 12.3179 -14.658 2.26836
ltibia -6.21984
lfoot -40.6631 -3.4819
ltoes 54.4811
182
root 9.62631 17.244 29.5856 -177.268 0.113906 -177.845
lowerback -10.0493 0.631226 1.64542
upperback -2.26694 0.87534 -0.384417
thorax 3.30269 0.530392 -1.20891
lowerneck 2.19496 -2.06547 -2.30371
upperneck -0.366683 -2.81346 3.95013
head -0.389476 -1.44387 1.63741
rclavicle -1.2424e-015 -1.23246e-014
rhumerus -43.2276 18.0975 -97.2806
rradius 26.7725
rwrist 6.52136
rhand 4.53755 -37.2332
rfingers 7.12502
rthumb 29.9288 -64.8334
lclavicle -1.2424e-015 -1.23246e-014
lhumerus -37.8018 -26.7641 99.2946
lradius 21.4582
lwrist 7.94927
lhand 6.86686 -16.2302
lfingers 7.12502
lthumb 32.1489 10.9458
rfemur 13.8776 26.1091 7.63806
rtibia -5.09382
rfoot -44.6777 -32.8184
rtoes 17.4633
lfemur 12.2738 -14.5906 2.12531
ltibia -6.23418
lfoot -40.6714 -3.85154
ltoes 54.5685
183
root 9.62417 17.2446 29.5794 -177.239 0.217117 -178.014
lowerback -10.0241 0.61022 1.51937
upperback -2.24024 0.859472 -0.428057
thorax 3.31505 0.520653 -1.18538
lowerneck 1.87341 -2.05701 -2.25951
upperneck 0.0905136 -2.81028 3.8509
head -0.19579 -1.43666 1.58836
rclavicle 0 3.97569e-015
rhumerus -43.0253 18.0006 -97.0981
rradius 26.6346
rwrist 6.91611
rhand 4.98112 -37.2108
rfingers 7.12502
rthumb 30.352 -64.7338
lclavicle 0 3.97569e-015
lhumerus -37.8185 -26.8943 99.333
lradius 21.5215
lwrist 8.10141
lhand 7.06531 -16.0538
lfingers 7.12502
lthumb 32.3379 11.0838
rfemur 13.7462 25.8953 7.27863
rtibia -5.0552
rfoot -44.2139 -32.7301
rtoes 17.4482
lfemur 12.3641 -14.6821 1.83846
ltibia -6.30003
lfoot -40.7427 -4.24238
ltoes 54.6415
184
root 9.62143 17.2453 29.5744 -177.272 0.244622 -178.04
lowerback -9.97917 0.572082 1.53307
upperback -2.14844 0.798318 -0.412655
thorax 3.38365 0.487778 -1.18494
lowerneck 1.55771 -2.04295 -2.23777
upperneck 0.472216 -2.79583 3.69745
head -0.0279444 -1.42365 1.52773
rclavicle -4.22417e-015 1.19271e-015
rhumerus -42.6167 17.9092 -96.8307
rradius 26.378
rwrist 7.1705
rhand 5.14732 -37.0702
rfingers 7.12502
rthumb 30.5105 -64.5639
lclavicle -4.22417e-015 1.19271e-015
lhumerus -37.6949 -27.0261 99.3455
lradius 21.4653
lwrist 8.21678
lhand 7.03131 -16.0793
lfingers 7.12502
lthumb 32.3055 11.0649
rfemur 13.7443 25.6123 7.14775
rtibia -5.06192
rfoot -43.6861 -32.7349
rtoes 16.9654
lfemur 12.4466 -14.5566 1.80751
ltibia -6.33552
lfoot -40.6062 -3.76627
ltoes 54.2163
185
root 9.62032 17.2459 29.5715 -177.26 0.316349 -177.989
lowerback -9.92793 0.603797 1.62409
upperback -2.08545 0.824716 -0.400602
thorax 3.42262 0.499666 -1.22055
lowerneck 1.45851 -2.09749 -2.15014
upperneck 0.71322 -2.87108 3.50753
head 0.0611452 -1.45857 1.44892
rclavicle 9.93923e-015 -1.11319e-014
rhumerus -42.1573 17.644 -96.5049
rradius 26.0704
rwrist 7.38817
rhand 5.27841 -36.8351
rfingers 7.12502
rthumb 30.6355 -64.3054
lclavicle 9.93923e-015 -1.11319e-014
lhumerus -37.5679 -27.344 99.4091
lradius 21.3679
lwrist 8.29366
lhand 6.88715 -16.38
lfingers 7.12502
lthumb 32.1683 10.7921
rfemur 13.6236 25.3399 7.05326
rtibia -4.99998
rfoot -43.1362 -32.7655
rtoes 16.3393
lfemur 12.4541 -14.3083 1.92919
ltibia -6.33163
lfoot -40.4127 -3.29469
ltoes 53.9225
186
root 9.61797 17.2472 29.5686 -177.25 0.428424 -177.96
lowerback -9.85299 0.659027 1.70105
upperback -2.04198 0.885918 -0.395942
thorax 3.42937 0.528911 -1.25187
lowerneck 1.5244 -2.11519 -2.21271
upperneck 0.837037 -2.90276 3.57053
head 0.0910679 -1.47582 1.47978
rclavicle 5.59082e-015 1.11319e-014
rhumerus -41.7969 17.4035 -96.2123
rradius 25.8073
rwrist 7.62322
rhand 5.49196 -36.8292
rfingers 7.12502
rthumb 30.8391 -64.2612
lclavicle 5.59082e-015 1.11319e-014
lhumerus -37.4778 -27.5666 99.4563
lradius 21.3439
lwrist 8.2383
lhand 7.03746 -16.6257
lfingers 7.12502
lthumb 32.3114 10.5173
rfemur 13.4363 25.0063 6.8749
rtibia -4.89043
rfoot -42.4945 -32.6172
rtoes 16.0034
lfemur 12.4617 -14.1118 1.97139
ltibia -6.27135
lfoot -40.3954 -3.31387
ltoes 53.6197
